<svg xmlns="http://www.w3.org/2000/svg" viewBox="0 0 512 620" width="512" height="620">
  <defs>
    <radialGradient id="bg" gradientUnits="userSpaceOnUse" cx="200" cy="190" r="330">
      <stop offset="0%" stop-color="#242142"/>
      <stop offset="55%" stop-color="#15132a"/>
      <stop offset="100%" stop-color="#0a0915"/>
    </radialGradient>
    <linearGradient id="gold" x1="0%" y1="0%" x2="100%" y2="100%">
      <stop offset="0%" stop-color="#f5d98b"/>
      <stop offset="45%" stop-color="#d4af37"/>
      <stop offset="100%" stop-color="#9c7a1e"/>
    </linearGradient>
  </defs>

  <rect width="512" height="620" fill="#0a0915"/>

  <!-- Badge (identique à logo.svg, translaté) -->
  <g transform="translate(0,10)">
    <circle cx="256" cy="256" r="248" fill="url(#bg)"/>
    <circle cx="256" cy="256" r="238" fill="none" stroke="url(#gold)" stroke-width="6"/>

    <g fill="url(#gold)">
      <circle cx="235" cy="215" r="72"/>
      <ellipse cx="272" cy="262" rx="52" ry="78"/>
      <polygon points="240,325 300,320 268,360"/>
      <ellipse cx="205" cy="248" rx="46" ry="58"/>
      <rect x="292" y="228" width="16" height="78" rx="8"/>
      <path d="M 150 148 C 190 108, 280 100, 330 132 C 300 118, 200 118, 195 180 Z"/>
    </g>

    <ellipse cx="288" cy="233" rx="19" ry="9" transform="rotate(-18 288 233)" fill="url(#bg)"/>
  </g>

  <!-- Nom du projet -->
  <text x="256" y="570" text-anchor="middle"
        font-family="Georgia, 'Times New Roman', serif" font-size="64"
        letter-spacing="10" fill="url(#gold)">NÉMÉSIS</text>
  <text x="256" y="598" text-anchor="middle"
        font-family="Arial, sans-serif" font-size="16" letter-spacing="4"
        fill="#8f8aa8">LEAGUE OF LEGENDS STATS BOT</text>
</svg>
